<svg width="16" height="10" viewBox="0 0 16 10" fill="none" xmlns="http://www.w3.org/2000/svg">
<path d="M15.6478 0.352177C15.4222 0.126673 15.1163 -7.70665e-06 14.7974 -7.73453e-06C14.4784 -7.76241e-06 14.1725 0.126673 13.947 0.352176L7.99274 6.30639L2.03852 0.352175C1.81166 0.133063 1.50781 0.0118205 1.19242 0.0145604C0.87703 0.0173012 0.575334 0.143806 0.352313 0.366828C0.12929 0.58985 0.00278641 0.891546 4.6476e-05 1.20694C-0.00269441 1.52232 0.118548 1.82617 0.33766 2.05304L7.14231 8.85768C7.36788 9.08319 7.67378 9.20987 7.99274 9.20987C8.3117 9.20987 8.6176 9.08319 8.84317 8.85768L15.6478 2.05304C15.8733 1.82747 16 1.52157 16 1.20261C16 0.883649 15.8733 0.577748 15.6478 0.352177Z" fill="#4E97FE"/>
</svg>
