<svg width="20" height="24" viewBox="0 0 20 24" fill="none" xmlns="http://www.w3.org/2000/svg">
<path d="M9.99999 0C12.6522 0 15.1957 1.06242 17.071 2.95354C18.9464 4.84466 20 7.40957 20 10.084C20 14.2588 16.8444 18.633 10.6667 23.3053C10.4743 23.4508 10.2404 23.5294 9.99999 23.5294C9.75958 23.5294 9.52565 23.4508 9.33332 23.3053C3.15555 18.633 0 14.2588 0 10.084C0 7.40957 1.05357 4.84466 2.92893 2.95354C4.80429 1.06242 7.34783 0 9.99999 0ZM9.99999 6.72268C9.11593 6.72268 8.26809 7.07682 7.64297 7.7072C7.01785 8.33757 6.66666 9.19254 6.66666 10.084C6.66666 10.9755 7.01785 11.8305 7.64297 12.4608C8.26809 13.0912 9.11593 13.4454 9.99999 13.4454C10.884 13.4454 11.7319 13.0912 12.357 12.4608C12.9821 11.8305 13.3333 10.9755 13.3333 10.084C13.3333 9.19254 12.9821 8.33757 12.357 7.7072C11.7319 7.07682 10.884 6.72268 9.99999 6.72268Z" fill="#939393"/>
</svg>
