<svg width="16" height="10" viewBox="0 0 16 10" fill="none" xmlns="http://www.w3.org/2000/svg">
<path d="M15.6478 0.352192C15.4222 0.126688 15.1163 7.55214e-06 14.7974 7.52426e-06C14.4784 7.49637e-06 14.1725 0.126688 13.947 0.352192L7.99274 6.30641L2.03852 0.352191C1.81166 0.133078 1.50781 0.0118357 1.19242 0.0145756C0.87703 0.0173164 0.575334 0.143821 0.352313 0.366843C0.12929 0.589865 0.00278641 0.891561 4.6476e-05 1.20695C-0.00269441 1.52234 0.118548 1.82619 0.33766 2.05305L7.14231 8.8577C7.36788 9.0832 7.67378 9.20988 7.99274 9.20988C8.3117 9.20988 8.6176 9.0832 8.84317 8.8577L15.6478 2.05305C15.8733 1.82748 16 1.52158 16 1.20262C16 0.883664 15.8733 0.577764 15.6478 0.352192Z" fill="#C5C6D0"/>
</svg>
