<svg width="26" height="26" viewBox="0 0 26 26" fill="none" xmlns="http://www.w3.org/2000/svg">
<path d="M24.8182 24.8182L19.1153 19.1153M19.1153 19.1153C20.0908 18.1398 20.8646 16.9817 21.3926 15.7072C21.9205 14.4326 22.1922 13.0666 22.1922 11.687C22.1922 10.3075 21.9205 8.94141 21.3926 7.66686C20.8646 6.39231 20.0908 5.23423 19.1153 4.25873C18.1398 3.28323 16.9817 2.50942 15.7072 1.98149C14.4326 1.45355 13.0666 1.18183 11.687 1.18183C10.3075 1.18183 8.94141 1.45355 7.66686 1.98149C6.39231 2.50942 5.23423 3.28323 4.25873 4.25873C2.28862 6.22883 1.18183 8.90087 1.18183 11.687C1.18183 14.4732 2.28862 17.1452 4.25873 19.1153C6.22883 21.0854 8.90087 22.1922 11.687 22.1922C14.4732 22.1922 17.1452 21.0854 19.1153 19.1153Z" stroke="#939393" stroke-width="2.33793" stroke-linecap="round" stroke-linejoin="round"/>
</svg>
