<svg width="14" height="16" viewBox="0 0 14 16" fill="none" xmlns="http://www.w3.org/2000/svg">
<path d="M6.80751 4.60372C6.17047 4.60372 5.55953 4.85678 5.10908 5.30723C4.65863 5.75768 4.40557 6.36862 4.40557 7.00566C4.40557 7.64269 4.65863 8.25363 5.10908 8.70409C5.55953 9.15454 6.17047 9.4076 6.80751 9.4076C7.44454 9.4076 8.05548 9.15454 8.50594 8.70409C8.95639 8.25363 9.20945 7.64269 9.20945 7.00566C9.20945 6.36862 8.95639 5.75768 8.50594 5.30723C8.05548 4.85678 7.44454 4.60372 6.80751 4.60372ZM5.40638 7.00566C5.40638 6.63405 5.55399 6.27767 5.81676 6.01491C6.07952 5.75214 6.4359 5.60453 6.80751 5.60453C7.17911 5.60453 7.53549 5.75214 7.79826 6.01491C8.06102 6.27767 8.20864 6.63405 8.20864 7.00566C8.20864 7.37726 8.06102 7.73364 7.79826 7.99641C7.53549 8.25917 7.17911 8.40679 6.80751 8.40679C6.4359 8.40679 6.07952 8.25917 5.81676 7.99641C5.55399 7.73364 5.40638 7.37726 5.40638 7.00566ZM12.0097 11.2091L7.97125 15.4965C7.82154 15.6555 7.64089 15.7822 7.44042 15.8687C7.23994 15.9553 7.02388 16 6.80551 16C6.58713 16 6.37107 15.9553 6.17059 15.8687C5.97012 15.7822 5.78948 15.6555 5.63976 15.4965L1.6013 11.2091H1.61652L1.60971 11.201L1.6013 11.191C0.564744 9.96511 -0.00274489 8.4109 9.98313e-06 6.8055C9.98313e-06 3.04686 3.04687 0 6.80551 0C10.5641 0 13.611 3.04686 13.611 6.8055C13.6138 8.4109 13.0463 9.96511 12.0097 11.191L12.0013 11.201L11.9945 11.2091H12.0097ZM11.2319 10.5609C12.1238 9.51318 12.6126 8.18149 12.6102 6.8055C12.6102 3.59971 10.0113 1.00081 6.80551 1.00081C3.59972 1.00081 1.00082 3.59971 1.00082 6.8055C0.998315 8.18151 1.48708 9.51323 2.37913 10.5609L2.50243 10.7062L6.36835 14.81C6.42449 14.8696 6.49224 14.9171 6.56741 14.9495C6.64259 14.982 6.72362 14.9988 6.80551 14.9988C6.8874 14.9988 6.96842 14.982 7.0436 14.9495C7.11877 14.9171 7.18652 14.8696 7.24266 14.81L11.1086 10.7062L11.2319 10.5609Z" fill="#909094"/>
</svg>
