<svg width="16" height="16" viewBox="0 0 16 16" fill="none" xmlns="http://www.w3.org/2000/svg">
<path d="M13.7143 1.7143H2.28571C1.33893 1.7143 0.571423 2.48181 0.571423 3.42858V13.7143C0.571423 14.6611 1.33893 15.4286 2.28571 15.4286H13.7143C14.661 15.4286 15.4285 14.6611 15.4285 13.7143V3.42858C15.4285 2.48181 14.661 1.7143 13.7143 1.7143Z" stroke="#909094" stroke-width="1.10902" stroke-linejoin="round"/>
<path d="M9.4293 7.99996C9.90269 7.99996 10.2864 7.6162 10.2864 7.14282C10.2864 6.66943 9.90269 6.28568 9.4293 6.28568C8.95592 6.28568 8.57216 6.66943 8.57216 7.14282C8.57216 7.6162 8.95592 7.99996 9.4293 7.99996Z" fill="#909094"/>
<path d="M12.2859 7.99996C12.7593 7.99996 13.1431 7.6162 13.1431 7.14282C13.1431 6.66943 12.7593 6.28568 12.2859 6.28568C11.8125 6.28568 11.4288 6.66943 11.4288 7.14282C11.4288 7.6162 11.8125 7.99996 12.2859 7.99996Z" fill="#909094"/>
<path d="M9.4293 10.8571C9.90269 10.8571 10.2864 10.4733 10.2864 9.99994C10.2864 9.52655 9.90269 9.1428 9.4293 9.1428C8.95592 9.1428 8.57216 9.52655 8.57216 9.99994C8.57216 10.4733 8.95592 10.8571 9.4293 10.8571Z" fill="#909094"/>
<path d="M12.2859 10.8571C12.7593 10.8571 13.1431 10.4733 13.1431 9.99994C13.1431 9.52655 12.7593 9.1428 12.2859 9.1428C11.8125 9.1428 11.4288 9.52655 11.4288 9.99994C11.4288 10.4733 11.8125 10.8571 12.2859 10.8571Z" fill="#909094"/>
<path d="M3.71507 10.8571C4.18846 10.8571 4.57222 10.4733 4.57222 9.99994C4.57222 9.52655 4.18846 9.1428 3.71507 9.1428C3.24169 9.1428 2.85793 9.52655 2.85793 9.99994C2.85793 10.4733 3.24169 10.8571 3.71507 10.8571Z" fill="#909094"/>
<path d="M6.57068 10.8571C7.04407 10.8571 7.42782 10.4733 7.42782 9.99994C7.42782 9.52655 7.04407 9.1428 6.57068 9.1428C6.09729 9.1428 5.71354 9.52655 5.71354 9.99994C5.71354 10.4733 6.09729 10.8571 6.57068 10.8571Z" fill="#909094"/>
<path d="M3.71507 13.7142C4.18846 13.7142 4.57222 13.3304 4.57222 12.8571C4.57222 12.3837 4.18846 11.9999 3.71507 11.9999C3.24169 11.9999 2.85793 12.3837 2.85793 12.8571C2.85793 13.3304 3.24169 13.7142 3.71507 13.7142Z" fill="#909094"/>
<path d="M6.57068 13.7142C7.04407 13.7142 7.42782 13.3304 7.42782 12.8571C7.42782 12.3837 7.04407 11.9999 6.57068 11.9999C6.09729 11.9999 5.71354 12.3837 5.71354 12.8571C5.71354 13.3304 6.09729 13.7142 6.57068 13.7142Z" fill="#909094"/>
<path d="M9.4293 13.7142C9.90269 13.7142 10.2864 13.3304 10.2864 12.8571C10.2864 12.3837 9.90269 11.9999 9.4293 11.9999C8.95592 11.9999 8.57216 12.3837 8.57216 12.8571C8.57216 13.3304 8.95592 13.7142 9.4293 13.7142Z" fill="#909094"/>
<path d="M3.42803 0.571427V1.71428M12.5709 0.571427V1.71428" stroke="#909094" stroke-width="1.10902" stroke-linecap="round" stroke-linejoin="round"/>
<path d="M15.4285 4.57143H0.571423" stroke="#909094" stroke-width="1.10902" stroke-linejoin="round"/>
</svg>
