<svg width="22" height="21" viewBox="0 0 22 21" fill="none" xmlns="http://www.w3.org/2000/svg">
<path d="M3.41665 1.36666C2.87296 1.36666 2.35154 1.58264 1.96709 1.96709C1.58264 2.35154 1.36666 2.87296 1.36666 3.41665V12.9833C1.36666 13.527 1.58264 14.0484 1.96709 14.4328C2.35154 14.8173 2.87296 15.0333 3.41665 15.0333H5.9222V19.4029C5.9222 19.5879 6.13175 19.6963 6.283 19.587L12.5951 15.0333H18.4499C18.9936 15.0333 19.515 14.8173 19.8995 14.4328C20.2839 14.0484 20.4999 13.527 20.4999 12.9833V3.41665C20.4999 2.87296 20.2839 2.35154 19.8995 1.96709C19.515 1.58264 18.9936 1.36666 18.4499 1.36666H3.41665ZM0 3.41665C0 2.5105 0.359968 1.64146 1.00071 1.00071C1.64146 0.359968 2.5105 0 3.41665 0H18.4499C19.3561 0 20.2251 0.359968 20.8659 1.00071C21.5066 1.64146 21.8666 2.5105 21.8666 3.41665V12.9833C21.8666 13.8894 21.5066 14.7585 20.8659 15.3992C20.2251 16.04 19.3561 16.3999 18.4499 16.3999H13.037L7.08295 20.6958C6.02789 21.4566 4.55554 20.7031 4.55554 19.402V16.3999H3.41665C2.5105 16.3999 1.64146 16.04 1.00071 15.3992C0.359968 14.7585 0 13.8894 0 12.9833V3.41665Z" fill="#868686"/>
</svg>
