<svg width="16" height="16" viewBox="0 0 16 16" fill="none" xmlns="http://www.w3.org/2000/svg">
<path d="M14.99 6.20141C14.7207 5.91999 14.4421 5.62999 14.3371 5.37499C14.24 5.14142 14.2343 4.75427 14.2285 4.37928C14.2178 3.68213 14.2064 2.89214 13.6571 2.34285C13.1078 1.79357 12.3178 1.78214 11.6207 1.77142C11.2457 1.76571 10.8585 1.76 10.625 1.66285C10.3707 1.55785 10.08 1.27928 9.79855 1.01C9.30569 0.536427 8.74569 0 7.99998 0C7.25427 0 6.69498 0.536427 6.20141 1.01C5.91999 1.27928 5.62999 1.55785 5.37499 1.66285C5.14285 1.76 4.75427 1.76571 4.37928 1.77142C3.68213 1.78214 2.89214 1.79357 2.34285 2.34285C1.79357 2.89214 1.78571 3.68213 1.77142 4.37928C1.76571 4.75427 1.76 5.14142 1.66285 5.37499C1.55785 5.62927 1.27928 5.91999 1.01 6.20141C0.536427 6.69427 0 7.25427 0 7.99998C0 8.74569 0.536427 9.30498 1.01 9.79855C1.27928 10.08 1.55785 10.37 1.66285 10.625C1.76 10.8585 1.76571 11.2457 1.77142 11.6207C1.78214 12.3178 1.79357 13.1078 2.34285 13.6571C2.89214 14.2064 3.68213 14.2178 4.37928 14.2285C4.75427 14.2343 5.14142 14.24 5.37499 14.3371C5.62927 14.4421 5.91999 14.7207 6.20141 14.99C6.69427 15.4635 7.25427 16 7.99998 16C8.74569 16 9.30498 15.4635 9.79855 14.99C10.08 14.7207 10.37 14.4421 10.625 14.3371C10.8585 14.24 11.2457 14.2343 11.6207 14.2285C12.3178 14.2178 13.1078 14.2064 13.6571 13.6571C14.2064 13.1078 14.2178 12.3178 14.2285 11.6207C14.2343 11.2457 14.24 10.8585 14.3371 10.625C14.4421 10.3707 14.7207 10.08 14.99 9.79855C15.4635 9.30569 16 8.74569 16 7.99998C16 7.25427 15.4635 6.69498 14.99 6.20141ZM11.2614 6.68998L7.26141 10.69C7.20834 10.7431 7.14532 10.7853 7.07595 10.814C7.00658 10.8428 6.93222 10.8576 6.85713 10.8576C6.78203 10.8576 6.70767 10.8428 6.6383 10.814C6.56893 10.7853 6.50591 10.7431 6.45284 10.69L4.73856 8.97569C4.63134 8.86847 4.5711 8.72304 4.5711 8.57141C4.5711 8.41977 4.63134 8.27435 4.73856 8.16712C4.84578 8.0599 4.99121 7.99966 5.14285 7.99966C5.29448 7.99966 5.43991 8.0599 5.54713 8.16712L6.85713 9.47783L10.4528 5.88141C10.5059 5.82832 10.569 5.78621 10.6383 5.75748C10.7077 5.72874 10.782 5.71395 10.8571 5.71395C10.9322 5.71395 11.0065 5.72874 11.0759 5.75748C11.1453 5.78621 11.2083 5.82832 11.2614 5.88141C11.3145 5.93451 11.3566 5.99753 11.3853 6.0669C11.4141 6.13627 11.4289 6.21062 11.4289 6.2857C11.4289 6.36078 11.4141 6.43513 11.3853 6.5045C11.3566 6.57386 11.3145 6.63689 11.2614 6.68998Z" fill="#FFB800"/>
</svg>
