<svg width="18" height="20" viewBox="0 0 18 20" fill="none" xmlns="http://www.w3.org/2000/svg">
<path d="M2.55264 2.55251C4.18699 0.918165 6.40363 0 8.71494 0C11.0263 0 13.2429 0.918165 14.8772 2.55251C16.5116 4.18686 17.4298 6.4035 17.4298 8.71482C17.4298 11.0261 16.5116 13.2428 14.8772 14.8771L13.6892 16.0521C12.8135 16.9109 11.6775 18.0158 10.2803 19.367C9.86036 19.773 9.29908 20 8.71494 20C8.13081 20 7.56953 19.773 7.1496 19.367L3.65559 15.9681C3.21521 15.5367 2.8489 15.1734 2.55264 14.8771C1.74336 14.0679 1.1014 13.1072 0.663412 12.0499C0.225428 10.9925 0 9.85927 0 8.71482C0 7.57036 0.225428 6.43711 0.663412 5.37978C1.1014 4.32244 1.74336 3.36173 2.55264 2.55251ZM13.8153 3.61342C13.1454 2.94356 12.3501 2.41222 11.4748 2.04972C10.5996 1.68722 9.66146 1.50067 8.71409 1.50071C7.76672 1.50076 6.82864 1.6874 5.9534 2.04999C5.07816 2.41257 4.28291 2.944 3.61305 3.61392C2.94319 4.28385 2.41185 5.07915 2.04935 5.95442C1.68685 6.8297 1.50029 7.7678 1.50034 8.71517C1.50039 9.66254 1.68703 10.6006 2.04962 11.4759C2.4122 12.3511 2.94363 13.1463 3.61355 13.8162L5.10284 15.2855C5.92154 16.0872 6.95243 17.088 8.1935 18.2881C8.33344 18.4232 8.52039 18.4987 8.71494 18.4987C8.9095 18.4987 9.09645 18.4232 9.23639 18.2881L12.6343 14.9852C13.1047 14.5238 13.4981 14.1345 13.8153 13.8162C15.168 12.4635 15.9279 10.6288 15.9279 8.71582C15.9279 6.80281 15.168 4.96815 13.8153 3.61543V3.61342ZM8.71494 5.98647C9.10951 5.98647 9.50022 6.06418 9.86475 6.21518C10.2293 6.36617 10.5605 6.58749 10.8395 6.86649C11.1185 7.14549 11.3398 7.47671 11.4908 7.84125C11.6418 8.20578 11.7195 8.59649 11.7195 8.99105C11.7195 9.38562 11.6418 9.77633 11.4908 10.1409C11.3398 10.5054 11.1185 10.8366 10.8395 11.1156C10.5605 11.3946 10.2293 11.6159 9.86475 11.7669C9.50022 11.9179 9.10951 11.9956 8.71494 11.9956C7.92771 11.9813 7.17757 11.6585 6.62592 11.0966C6.07427 10.5348 5.76519 9.77892 5.76519 8.99155C5.76519 8.20419 6.07427 7.44828 6.62592 6.88647C7.17757 6.32466 7.92771 6.00184 8.71494 5.98747V5.98647ZM8.71494 7.48776C8.31625 7.48776 7.93388 7.64614 7.65196 7.92806C7.37003 8.20999 7.21165 8.59236 7.21165 8.99105C7.21165 9.38975 7.37003 9.77212 7.65196 10.054C7.93388 10.336 8.31625 10.4943 8.71494 10.4943C9.1068 10.4842 9.4792 10.3215 9.75277 10.0407C10.0263 9.76002 10.1795 9.38354 10.1795 8.99155C10.1795 8.59957 10.0263 8.22309 9.75277 7.94237C9.4792 7.66164 9.1068 7.49887 8.71494 7.48876V7.48776Z" fill="#7A5CF0"/>
</svg>
