<svg width="22" height="24" viewBox="0 0 22 24" fill="none" xmlns="http://www.w3.org/2000/svg">
<path d="M10.9937 7.93794e-06C13.3783 -0.00312669 15.6704 0.92223 17.3844 2.58003C19.0985 4.23782 20.0998 6.49781 20.1762 8.88117L20.1811 9.18741V14.2062L21.8716 18.0722C21.9736 18.3052 22.0159 18.5599 21.9947 18.8133C21.9736 19.0667 21.8896 19.3109 21.7504 19.5237C21.6111 19.7365 21.4211 19.9112 21.1973 20.0321C20.9736 20.1529 20.7233 20.2162 20.469 20.216L14.6686 20.2197C14.6699 21.1764 14.298 22.0958 13.632 22.7827C12.966 23.4695 12.0584 23.8696 11.1021 23.8978C10.1459 23.926 9.21624 23.5802 8.51089 22.9339C7.80554 22.2875 7.38005 21.3916 7.32485 20.4365L7.31872 20.216H1.53066C1.27685 20.2157 1.0271 20.1523 0.803817 20.0317C0.580537 19.911 0.390726 19.7367 0.251429 19.5246C0.112132 19.3124 0.0277117 19.069 0.00574886 18.8161C-0.016214 18.5633 0.0249685 18.3089 0.125598 18.0759L1.80628 14.2074V9.18741C1.80628 4.09759 5.91244 7.93794e-06 10.9937 7.93794e-06ZM12.8312 20.2172L9.1562 20.2197C9.15612 20.6916 9.33767 21.1456 9.66322 21.4873C9.98876 21.8291 10.4333 22.0325 10.9048 22.0553C11.3762 22.0781 11.8384 21.9187 12.1954 21.61C12.5525 21.3013 12.777 20.8671 12.8226 20.3973L12.8312 20.2172ZM10.9937 1.83749C6.92673 1.83749 3.64376 5.11311 3.64376 9.18741V14.5896L1.99738 18.3797H20.001L18.3436 14.5908V9.20334L18.3399 8.92772C18.2763 7.02316 17.474 5.21813 16.1028 3.89476C14.7316 2.57139 12.8993 1.83356 10.9937 1.83749Z" fill="#939393"/>
</svg>
